<?xml version="1.0" encoding="UTF-8"?> <svg xmlns="http://www.w3.org/2000/svg" width="79" height="99" viewBox="0 0 79 99" fill="none"><path d="M20 19.404C18.896 19.404 18 18.508 18 17.404V2C18 0.896 18.896 0 20 0C21.104 0 22 0.896 22 2V17.404C22 18.509 21.105 19.404 20 19.404Z" fill="#373737"></path><path d="M31.7759 19.404C30.6719 19.404 29.7759 18.508 29.7759 17.404V2C29.7759 0.896 30.6719 0 31.7759 0C32.8799 0 33.7759 0.896 33.7759 2V17.404C33.7759 18.509 32.8799 19.404 31.7759 19.404Z" fill="#373737"></path><path d="M43.832 19.404C42.728 19.404 41.832 18.508 41.832 17.404V2C41.832 0.896 42.728 0 43.832 0C44.936 0 45.832 0.896 45.832 2V17.404C45.832 18.509 44.936 19.404 43.832 19.404Z" fill="#373737"></path><path d="M59.541 99H2C0.896 99 0 98.104 0 97C0 95.896 0.896 95 2 95H59.541C60.645 95 61.541 95.896 61.541 97C61.541 98.104 60.646 99 59.541 99Z" fill="#373737"></path><path d="M30.771 93.157C13.804 93.157 0 79.352 0 62.385V25H61.541V62.385C61.541 79.353 47.737 93.157 30.771 93.157ZM4 29V62.385C4 77.148 16.009 89.157 30.771 89.157C45.533 89.157 57.541 77.147 57.541 62.385V29H4Z" fill="#373737"></path><path d="M74.1893 49.2019C74.1893 46.6468 73.9196 44.6027 73.3802 43.0697C72.8408 41.5367 72.131 40.3869 71.2509 39.6203C70.3709 38.8538 69.4056 38.3428 68.3552 38.0873C67.319 37.8318 66.297 37.7041 65.2891 37.7041H61.8398V61.0403H65.3317C66.3821 61.0403 67.4255 60.8771 68.4617 60.5506C69.5121 60.2099 70.4702 59.6137 71.3361 58.7621C72.202 57.8962 72.8904 56.6967 73.4014 55.1637C73.9267 53.6164 74.1893 51.6292 74.1893 49.2019ZM78.1283 49.2019C78.1283 51.6434 77.8657 53.73 77.3405 55.4618C76.8295 57.1793 76.1269 58.5988 75.2326 59.7202C74.3383 60.8416 73.3163 61.7146 72.1665 62.3392C71.0309 62.9495 69.8315 63.3825 68.5681 63.638C67.319 63.8793 66.0911 64 64.8846 64H58.1562V34.6806H64.4162C66.1337 34.6806 67.8016 34.8722 69.4198 35.2554C71.0522 35.6387 72.5214 36.3484 73.8273 37.3847C75.1474 38.4067 76.1907 39.8688 76.9573 41.7709C77.738 43.673 78.1283 46.15 78.1283 49.2019Z" fill="#373737"></path><path d="M9.30001 37.9906V48.1416H19.6605V51.09H9.30001V63.9999H6V35H21.5599L21.157 37.9906H9.30001Z" fill="#373737"></path><path d="M27.1205 37.9906V47.7625H36.9054V50.7742H27.1205V61.0726H39.131V64H23.7821V35H38.7856L38.4019 37.9906H27.1205Z" fill="#373737"></path><path d="M44.9895 37.9906V47.7625H54.7744V50.7741H44.9895V61.0726H57V63.9999H41.6512V35H56.6547L56.2709 37.9906H44.9895Z" fill="#373737"></path></svg> 